# xmcd
#
# Track frame offsets:
#	150
#	11117
#	23706
#	36373
#	49010
#	62078
#	74784
#	88611
#	102256
#	116768
#	129528
#	142551
#	156023
#	168967
#	182609
#	196489
#	209032
#	221086
#	234627
#	249010
#	261269
#	272823
#	285829
#	299271
#	311805
#	325118
#
# Disc length: 4507 seconds
#
# Revision: 1
# Processed by: cddbd v1.5.2PL0 Copyright (c) Steve Scherf et al.
# Submitted via: audiograbber 1.83.01
#
DISCID=8411991a
DTITLE=Sonny Boy Williamson (I) - The Original Sonny Boy Williamson 1947 - Cd D
DYEAR=2008
DGENRE=Blues
TTITLE0=SONNY BOY WILLIAMSON - Apple Tree Swing
TTITLE1=BIG JOE WILLIAMS - Baby Please Don't Go
TTITLE2=BIG JOE WILLIAMS - Stack of Dollars
TTITLE3=BIG JOE WILLIAMS - Mellow Apples
TTITLE4=bIG JOE WILLIAMS - Wild Cow Moan
TTITLE5=BIG JOE WILLIAMS - Baby Please Don't Go (alt)
TTITLE6=SONNY BOY WILLIAMSON - Wonderful Time
TTITLE7=SONNY BOY WILLIAMSON - Sugar Gal
TTITLE8=SONNY BOY WILLIAMSOM - Willow Tree Gal
TTITLE9=SONNY BOY WILLIAMSOM - Alcohol Blues
TTITLE10=SONNY BOY WILLIAMSON - Little Girl
TTITLE11=SONNY BOY WILLIAMSON - Blues About My Baby
TTITLE12=SONNY BOY WILLIAMSON - No Friend Blues
TTITLE13=SONNY BOY WILLIAMSON - I Love You for Myself
TTITLE14=SONNY BOY WILLIAMSON - Bring Another Half a Pint
TTITLE15=SONNY BOY WILLIAMSON - Southern Dream
TTITLE16=SONNY BOY WILLIAMSON - Rub a Dub
TTITLE17=SONNY BOY WILLIAMSON - Better Cut That Out
TTITLE18=BIG JOE WILLIAMS - P Vine Blues
TTITLE19=BIG JOE WILLIAMS - Bad and Weak Hearted Blues
TTITLE20=BIG JOE WILLIAMS - King Biscuit Stomp
TTITLE21=BIG JOE WILLIAMS - I'm a Highway Man
TTITLE22=BIG JOE WILLIAMS - Banta Rooster Blues
TTITLE23=BIG JOE WILLIAMS - Mean Step Father Blues
TTITLE24=BIG JOE WILLIAMS - House Lady Blues
TTITLE25=BIG JOE WILLIAMS - Don't You Leave Me Here
EXTD=with Big Joe Williams
EXTT0=
EXTT1=
EXTT2=
EXTT3=
EXTT4=
EXTT5=
EXTT6=
EXTT7=
EXTT8=
EXTT9=
EXTT10=
EXTT11=
EXTT12=
EXTT13=
EXTT14=
EXTT15=
EXTT16=
EXTT17=
EXTT18=
EXTT19=
EXTT20=
EXTT21=
EXTT22=
EXTT23=
EXTT24=
EXTT25=
PLAYORDER=
